<svg xmlns="http://www.w3.org/2000/svg" width="24" height="24" viewBox="0 0 24 24" fill="none" stroke="#0CB8B6" stroke-width="2" stroke-linecap="round" stroke-linejoin="round" class="lucide lucide-car"><path d="M19 17h2c.6 0 1-.4 1-1v-3c0-.9-.7-1.7-1.5-1.9C18.7 10.6 16 10 16 10s-1.3-1.4-2.2-2.3c-.5-.6-1.2-.9-1.9-1.1C10.8 6.3 9.3 6 8 6H6c-.6 0-1 .4-1 1v7.3c0 .5.2.9.6 1.2L7 16"/><path d="M9 17h6"/><path d="M19 17a2 2 0 1 1 0 4c-1.7 0-3-1.3-3-3"/><path d="M5 17a2 2 0 1 0 0 4c1.8 0 3-1.3 3-3"/><path d="M5 9v4"/><path d="M19 9v4"/></svg>